<svg xmlns="http://www.w3.org/2000/svg" xmlns:xlink="http://www.w3.org/1999/xlink" viewBox="0 0 76.62 76.88"><defs><style>.cls-1{fill:none;}.cls-2{clip-path:url(#clip-path);}.cls-3{fill:#0f4621;}.cls-4{fill:#fff;}</style><clipPath id="clip-path" transform="translate(0 0)"><rect class="cls-1" width="76.62" height="76.88"/></clipPath></defs><g id="Layer_2" data-name="Layer 2"><g id="Layer_1-2" data-name="Layer 1"><g class="cls-2"><rect class="cls-3" width="76.62" height="76.88" rx="11.79"/><path class="cls-4" d="M61.38,26.93,39.53,14.15a1,1,0,0,0-1.07,0L16.61,26.93A1.31,1.31,0,0,0,16,28.06v5.11a1.23,1.23,0,0,0,1.15,1.28,1.12,1.12,0,0,0,.53-.15L39,21.83,60.32,34.3a1,1,0,0,0,.53.14A1.21,1.21,0,0,0,62,33.17h0V28.06a1.29,1.29,0,0,0-.62-1.13" transform="translate(0 0)"/><path class="cls-4" d="M45.62,42.62l.25-.4a1.08,1.08,0,0,1,1.6-.33,1.36,1.36,0,0,1,.3,1.77l0,0-1.86,3a1.13,1.13,0,0,1-.74.53l-.2,0a1,1,0,0,1-.66-.24l-2.67-2.07a1.37,1.37,0,0,1-.28-1.78A1.08,1.08,0,0,1,43,42.79l.41.32a4.48,4.48,0,0,0-5.71-3.3,3,3,0,0,0-.49.2,1.09,1.09,0,0,1-1.53-.6,1.34,1.34,0,0,1,.54-1.7l.07,0c3.45-1.7,7.49,0,9,3.86a8.14,8.14,0,0,1,.35,1.09Zm-3.86,9c-3.45,1.71-7.5,0-9-3.86a8.83,8.83,0,0,1-.36-1.1l-.25.39a1.07,1.07,0,0,1-1.6.3,1.36,1.36,0,0,1-.27-1.78l1.86-2.92a1.08,1.08,0,0,1,1.6-.31l2.66,2.07a1.38,1.38,0,0,1,.29,1.78,1.09,1.09,0,0,1-1.61.32l-.41-.33a4.48,4.48,0,0,0,5.71,3.31,4.25,4.25,0,0,0,.49-.21,1.1,1.1,0,0,1,1.53.61,1.34,1.34,0,0,1-.55,1.7l-.06,0M20.6,35.48V58.72A1.22,1.22,0,0,0,21.75,60h34.5a1.22,1.22,0,0,0,1.15-1.28h0V35.48L39,24.72Z" transform="translate(0 0)"/></g></g></g></svg>